<svg xmlns="http://www.w3.org/2000/svg" viewBox="0 0 475 113"><path d="M232.5 76.1h21.4l-1.6 7.7h-12l-1.4 6.2h11.3l-1.6 7.4h-11.2l-1.6 7.2h12.5l-1.6 7.7h-21.9l7.7-36.2m20.9 8.8h9.4l-1.6 19.7h.1l6.8-19.7h9.4L265 112.3h-10.8l-.8-27.4m30.7 15.2l-.8 3.6c-.6 2.9.4 3.7 1.7 3.7 1.6 0 2.8-1 3.6-4.8h8.2c-1.5 6.6-5.4 10.3-12.9 10.3-8.8 0-10.8-4-8.6-14.4 2.2-10.5 6.5-14.4 14.7-14.4 7.3 0 10.3 3.2 8.2 13.2l-.6 2.8h-13.5m6.3-6.2c.6-2.9.3-4.2-1.6-4.2-1.9 0-2.8 1.3-3.4 4.2l-.3 1.2h5l.3-1.2zm12.7-9h8.8l-.9 4.4h.1c1.7-3.3 4.5-5.1 7.2-5.1h1.5l-1.8 8.5c-.8-.2-1.5-.2-2.2-.2-3.2 0-5.4 1.3-6.2 4.9l-3.2 14.9h-9.1l5.8-27.4m33.3-8.8h9.1L343 88h.1c1.5-2.8 3.9-3.8 6.5-3.8 5.3 0 7.7 3.2 5.5 13.8-2.2 10.1-5.3 15-11.4 15-3.2 0-4.8-1.4-5.3-4.5h-.1l-.8 3.8h-8.8l7.7-36.2m5.3 30.1c2.1 0 3-1.7 4.2-7.6 1.3-5.9 1.2-7.7-1-7.7-2.1 0-2.9 1.7-4.2 7.7-1.2 5.9-1.1 7.6 1 7.6zm24.1-6.1l-.8 3.6c-.6 2.9.4 3.7 1.7 3.7 1.6 0 2.8-1 3.6-4.8h8.2c-1.5 6.6-5.4 10.3-12.9 10.3-8.8 0-10.8-4-8.6-14.4 2.2-10.5 6.5-14.4 14.7-14.4 7.3 0 10.3 3.2 8.2 13.2l-.6 2.8h-13.5m6.3-6.2c.6-2.9.3-4.2-1.6-4.2-1.9 0-2.8 1.3-3.4 4.2l-.3 1.2h5l.3-1.2zm38.1-2.9h3.6l1.3-6.1h-3.6l1.7-8.1h-9.1l-1.7 8.1h-6.8l1.7-8.1h-9.1l-1.7 8.1h-3l-1.3 6.1h3l-3.1 14.6c-1.3 6.1.7 7 6.3 7 1.5 0 3.3-.1 5-.3l1.3-6.1h-1.4c-1.5 0-2.1-.6-1.7-2.1l2.8-13.1h6.8l-3.1 14.6c-1.3 6.1.7 7 6.3 7 1.5 0 3.3-.1 5-.3l1.3-6.1h-1.4c-1.5 0-2.1-.6-1.7-2.1l2.6-13.1m11.9 9.1l-.8 3.6c-.6 2.9.4 3.7 1.7 3.7 1.6 0 2.8-1 3.6-4.8h8.2c-1.5 6.6-5.4 10.3-12.9 10.3-8.8 0-10.8-4-8.6-14.4 2.2-10.5 6.5-14.4 14.7-14.4 7.3 0 10.3 3.2 8.2 13.2l-.6 2.8h-13.5m6.4-6.2c.6-2.9.3-4.2-1.6-4.2-1.9 0-2.8 1.3-3.4 4.2l-.3 1.2h5l.3-1.2zm12.7-9h8.8l-.9 4.4h.1c1.7-3.3 4.5-5.1 7.2-5.1h1.5l-1.8 8.5c-.8-.2-1.5-.2-2.2-.2-3.2 0-5.4 1.3-6.2 4.9l-3.2 14.9h-9.1l5.8-27.4m10.2 17.4h8.5l-2.1 10h-8.5l2.1-10m15.3-22.9h-1.9v5.2h-1v-5.2h-1.9v-.8h4.7v.8m7.9 5.2h-1v-5l-2 5h-.6l-2-5v5h-1v-6h1.5l1.8 4.6 1.8-4.6h1.5v6z"/><path fill="#CE2028" d="M125.6.7h40.7c14.8 0 22.5 4.4 19.7 17-1.7 7.7-6.3 13.6-17.1 16v.2c6.5.6 9.5 3.4 9.8 8.6.3 5.8-2 15.3-1.1 25.4h-26.7c-.5-5 .5-13.5.8-19.3.2-3.3-1.3-4.7-5.7-4.7h-3.1l-5.2 23.9H111L125.6.7m22.9 28c5.2 0 9.4-1.8 10.5-6.8 1.1-4.9-2.2-6-7.6-6H149l-2.8 12.7h2.3z"/><path fill="#CE2028" d="M193.5 69.3l-8.8-48.1h24.4l1 25.6h.2l11.9-25.6h23l-36.7 64.5h-24.9l9.9-16.4m76.4-6.8c-5.2 5.3-11.1 6.8-16.3 6.8-11.6 0-18-8.7-14.4-25.3 3.8-17.7 14.5-24.2 24.9-24.2 5.3 0 10.1 1.5 13 5.7L282.5.7h23l-14.6 67.2h-21.7l.7-5.4m4.1-25.2c0-2.7-1.4-4.3-4-4.3-4.8 0-6.3 4.1-7.9 11.5-1.4 6.3-1.9 11.5 3 11.5 2.6 0 3.9-1.1 4.8-2.5 1-1.4 1.9-4.2 2.9-9 .9-4.1 1.2-5.3 1.2-7.2zm77.7 15.6c-4 10.6-13.6 16.4-31.5 16.4-14 0-25.2-6.1-21.1-25 3.5-16.1 16.5-24.5 33.6-24.5 18.1 0 24.8 9 21.2 25.7l-.7 3.2h-32.9L320 50c-1.2 5.4.2 7.7 4.8 7.7 2.6 0 5.4-1.5 6.8-4.8h20.1m-17.1-14.1l.1-.7c1-4.5-.9-6.8-4.5-6.8-3.7 0-6.7 2.3-7.7 6.8l-.1.7h12.2zm49.9-18.3l-2.3 10.7h.2c4.3-6.7 10-11.8 17.4-11.8 1.4 0 2.8.2 3.7.5l-4.1 19c-1-.5-3-.7-5.2-.7-6.5 0-13.2 5.6-14.7 12.6L375.8 68h-23.5l10.3-47.4h21.9"/><path d="M112 5.3c-21.8 4-40.3 10.4-52.8 18.5l46.5 10.4-.7 3.1L0 13.9h66.1c13.3-5.2 29.1-9.1 46.5-11.3l-.6 2.7m84.9 100.8l7-12.3c-12.7 1.8-26.5 2.8-40.7 2.8-67.3 0-121.8-21.4-121.8-47.8 0-6.6 3.4-12.9 9.6-18.7l-10.3-2.3c-10.8 8.4-17 18.2-17 28.6 0 30.7 53.5 55.7 119.4 55.7 19.2 0 37.7-2.2 53.8-6"/><path fill="#CE2028" d="M406.3 24.5c0-3.3 2.7-6 6-6s6 2.7 6 6-2.7 6-6 6c-3.3-.1-6-2.7-6-6m11.3 0c0-2.9-2.3-5.2-5.2-5.2-2.9 0-5.3 2.3-5.3 5.2 0 2.9 2.3 5.3 5.3 5.3 2.8-.1 5.2-2.4 5.2-5.3zm-2.3 3.3h-1l-1.9-3.1h-1.5v3.1h-.8v-6.7h2.9c.6 0 1.1 0 1.6.3s.7.9.7 1.4c0 1.3-.9 1.8-2.1 1.8l2.1 3.2zm-3.1-3.7c.9 0 2.4.2 2.4-1.2 0-1-.9-1.2-1.7-1.2H411v2.4h1.2z"/></svg>